# xmcd CD database file
#
# Track frame offsets:
#	150
#	8661
#	24576
#	41992
#	58005
#	78324
#	104450
#	127365
#	144646
#	164350
#	176582
#	195467
#	204689
#	219501
#	239589
#
# Disc length: 3376 seconds
#
# Revision: 0
# Processed by: cddbd v1.4PL0 Copyright (c) Steve Scherf et al.
# Submitted via: Feurio! 1.63 - http://www.feurio.com
#
DISCID=de0d2e0f
DTITLE=Alicia Keys - Songs in a minor
DYEAR=1900
DGENRE=
TTITLE0=Piano
TTITLE1=Girlfriend
TTITLE2=How come you don´t call me
TTITLE3=Fallin´
TTITLE4=Troubles
TTITLE5=Rock with you
TTITLE6=A woman´s worth
TTITLE7=Jane Doe
TTITLE8=Good bye
TTITLE9=The life
TTITLE10=Mr. Man
TTITLE11=Never felt this way
TTITLE12=Butterflyz
TTITLE13=Why do I feel so sad
TTITLE14=Caged Bird
EXTD=
EXTT0=
EXTT1=
EXTT2=
EXTT3=
EXTT4=
EXTT5=
EXTT6=
EXTT7=
EXTT8=
EXTT9=
EXTT10=
EXTT11=
EXTT12=
EXTT13=
EXTT14=
PLAYORDER=
